<?xml version="1.0" encoding="UTF-8" standalone="no"?>
<svg
   xmlns:dc="http://purl.org/dc/elements/1.1/"
   xmlns:cc="http://creativecommons.org/ns#"
   xmlns:rdf="http://www.w3.org/1999/02/22-rdf-syntax-ns#"
   xmlns:svg="http://www.w3.org/2000/svg"
   xmlns="http://www.w3.org/2000/svg"
   xmlns:xlink="http://www.w3.org/1999/xlink"
   xmlns:sodipodi="http://sodipodi.sourceforge.net/DTD/sodipodi-0.dtd"
   xmlns:inkscape="http://www.inkscape.org/namespaces/inkscape"
   id="Camada_1"
   data-name="Camada 1"
   viewBox="0 0 376.92936 131.64116"
   version="1.1"
   sodipodi:docname="marca_horizontal.svg"
   width="376.92938"
   height="131.64116"
   inkscape:version="0.92.3 (2405546, 2018-03-11)">
  <metadata
     id="metadata133">
    <rdf:RDF>
      <cc:Work
         rdf:about="">
        <dc:format>image/svg+xml</dc:format>
        <dc:type
           rdf:resource="http://purl.org/dc/dcmitype/StillImage" />
        <dc:title>marca_horizontal</dc:title>
      </cc:Work>
    </rdf:RDF>
  </metadata>
  <sodipodi:namedview
     pagecolor="#ffffff"
     bordercolor="#666666"
     borderopacity="1"
     objecttolerance="10"
     gridtolerance="10"
     guidetolerance="10"
     inkscape:pageopacity="0"
     inkscape:pageshadow="2"
     inkscape:window-width="1920"
     inkscape:window-height="1027"
     id="namedview131"
     showgrid="false"
     inkscape:pagecheckerboard="true"
     fit-margin-top="0"
     fit-margin-left="0"
     fit-margin-right="0"
     fit-margin-bottom="0"
     inkscape:zoom="1.0381669"
     inkscape:cx="-9.6862445"
     inkscape:cy="35.163173"
     inkscape:window-x="-8"
     inkscape:window-y="-8"
     inkscape:window-maximized="1"
     inkscape:current-layer="layer1"
     showguides="true" />
  <defs
     id="defs4">
    <color-profile
       name="sRGB-IEC61966-2.1"
       xlink:href="C:\WINDOWS\system32\spool\drivers\color\sRGB Color Space Profile.icm"
       id="color-profile875" />
    <style
       id="style2">.cls-1,.cls-3{fill:#1c3761;}.cls-1,.cls-2{fill-rule:evenodd;}.cls-2{fill:#f4981a;}</style>
  </defs>
  <title
     id="title6">marca_horizontal</title>
  <g
     inkscape:groupmode="layer"
     id="layer1"
     inkscape:label="L1"
     transform="translate(-109.16,-143.9582)">
    <path
       style="fill:#1c3761;fill-rule:evenodd"
       class="cls-1"
       d="m 180.22,242.69 c 0,0 -3.52,-0.44 -2.42,-3.36 1.1,-2.92 7,-21.72 14.27,-38.07 6.15,-13.77 19.54,-38.73 19.54,-38.73 0,0 -11.41,24.52 -19,42.66 -7.36,17.8 -11.09,32 -11,33.58 0.09,1.58 1.42,2.92 0.76,3.48 a 2.25,2.25 0 0 1 -2.19,0.44"
       id="path8"
       inkscape:connector-curvature="0" />
    <path
       style="fill:#f4981a;fill-rule:evenodd"
       class="cls-2"
       d="m 177.54,270.6 c 4.87,-15.21 -6.74,-17.2 -17.24,-17.77 a 47.82,47.82 0 0 0 -29.59,7.85 7.12,7.12 0 0 1 -3.37,0.41 c 0,0 -4.69,-1.57 -3.09,-2.23 1.6,-0.66 4.3,-0.49 7.86,-2.32 6.93,-3.47 17,-5.86 27.54,-5.62 10.35,0.25 25.35,3.08 18.35,19.93 -4.87,10.83 -0.47,-0.25 -0.47,-0.25"
       id="path10"
       inkscape:connector-curvature="0" />
    <path
       style="fill:#f4981a;fill-rule:evenodd"
       class="cls-2"
       d="m 109.2,250.42 c 0,0 -0.11,-26.65 18.22,-62 13.94,-27 42.48,-48.26 60.15,-43.89 17.67,4.37 -2.74,35.47 -10.57,44.31 -10.32,11.64 -22.06,20.37 -34.14,15.79 -13.72,-5.27 -6,-23.3 -3.84,-23.52 2.16,-0.22 4.28,0.45 4.05,1.68 -0.23,1.23 -2.29,2.8 -2.84,4 -0.55,1.2 -7.47,18.25 9.65,17.92 5.49,-0.23 16.36,-4.26 31.73,-26.54 15.37,-22.28 12.29,-31.35 5.82,-32.58 -15.6,-3.14 -42.71,14.89 -58.51,45.68 -17.35,33.93 -19.76,59.12 -19.76,59.12"
       id="path12"
       inkscape:connector-curvature="0" />
    <path
       style="fill:#f4981a;fill-rule:evenodd"
       class="cls-2"
       d="m 128.56,229.37 c -0.87,-0.23 -1.1,-1 -2.41,-1.45 -1.54,-0.23 -2.31,-1.46 -0.66,-1.68 8.12,-1.24 13.61,-6.16 28.21,-9.3 11.74,-2.46 25.46,-1.34 25.46,-1.34 0,0 -17,0.67 -27.11,3.47 -14.49,3.92 -21.18,10.75 -23.49,10.3"
       id="path14"
       inkscape:connector-curvature="0" />
    <path
       style="fill:#1c3761"
       class="cls-3"
       d="M 254.16,155.59 H 234 v 9.09 h 18.7 v 9.46 H 234 V 195 h -11.26 v -48.87 h 31.42 z"
       id="path16"
       inkscape:connector-curvature="0" />
    <path
       style="fill:#1c3761"
       class="cls-3"
       d="M 304.41,195 H 272.7 v -48.87 h 31.71 v 9.46 H 284 V 164 h 19 v 9.45 h -19 v 12.08 h 20.46 z"
       id="path18"
       inkscape:connector-curvature="0" />
    <path
       style="fill:#1c3761"
       class="cls-3"
       d="m 356.35,195 h -31.72 v -48.87 h 31.72 v 9.46 H 335.88 V 164 h 19 v 9.45 h -19 v 12.08 h 20.47 z"
       id="path20"
       inkscape:connector-curvature="0" />
    <path
       style="fill:#1c3761"
       class="cls-3"
       d="m 411.66,179.65 a 14.48,14.48 0 0 1 -5.49,11.74 q -5.49,4.52 -14.91,4.52 a 37.56,37.56 0 0 1 -9.5,-1.07 44.61,44.61 0 0 1 -7.58,-2.71 v -11.72 h 1.23 a 25.5,25.5 0 0 0 7.85,4.79 23.14,23.14 0 0 0 8.35,1.68 24.77,24.77 0 0 0 2.71,-0.2 9.73,9.73 0 0 0 2.74,-0.66 6.72,6.72 0 0 0 2.13,-1.47 3.69,3.69 0 0 0 0.84,-2.63 3.74,3.74 0 0 0 -1.22,-2.78 8.17,8.17 0 0 0 -3.58,-1.78 q -2.48,-0.66 -5.22,-1.24 a 36.39,36.39 0 0 1 -5.17,-1.46 q -5.54,-2 -8,-5.43 a 14.38,14.38 0 0 1 -2.43,-8.52 13.56,13.56 0 0 1 5.49,-11.15 q 5.51,-4.32 14.12,-4.32 a 39.73,39.73 0 0 1 8.56,0.94 37.08,37.08 0 0 1 7.32,2.35 v 11.26 h -1.21 a 22.65,22.65 0 0 0 -6.49,-4 20.39,20.39 0 0 0 -7.85,-1.59 18.88,18.88 0 0 0 -2.81,0.21 10.52,10.52 0 0 0 -2.7,0.81 5.29,5.29 0 0 0 -2,1.49 3.5,3.5 0 0 0 -0.83,2.28 3.56,3.56 0 0 0 1.33,3 13.86,13.86 0 0 0 5,1.88 L 397,165 a 44.87,44.87 0 0 1 4.79,1.44 15.84,15.84 0 0 1 7.43,5 13.24,13.24 0 0 1 2.44,8.21 z"
       id="path22"
       inkscape:connector-curvature="0" />
    <path
       style="fill:#1c3761"
       class="cls-3"
       d="m 450,196 a 24.48,24.48 0 0 1 -9,-1.61 19.11,19.11 0 0 1 -7.12,-4.79 21.72,21.72 0 0 1 -4.6,-7.94 37.08,37.08 0 0 1 -0.08,-21.55 23,23 0 0 1 4.54,-8.11 19.1,19.1 0 0 1 7.08,-5 23.65,23.65 0 0 1 9.23,-1.77 32.71,32.71 0 0 1 5,0.34 30.45,30.45 0 0 1 4.11,0.91 27.3,27.3 0 0 1 3.58,1.39 c 1.07,0.52 2,1 2.81,1.43 v 11.8 h -1.3 q -0.82,-0.78 -2.07,-1.86 a 26.9,26.9 0 0 0 -2.84,-2.12 18.61,18.61 0 0 0 -3.51,-1.77 11.17,11.17 0 0 0 -4,-0.72 12.4,12.4 0 0 0 -4.54,0.84 10.9,10.9 0 0 0 -4,2.77 13.66,13.66 0 0 0 -2.81,4.95 22.67,22.67 0 0 0 -1.08,7.47 22,22 0 0 0 1.16,7.67 13.6,13.6 0 0 0 2.93,4.84 10.56,10.56 0 0 0 4,2.58 13.23,13.23 0 0 0 4.36,0.77 12.47,12.47 0 0 0 4.07,-0.69 15.31,15.31 0 0 0 3.73,-1.86 24.14,24.14 0 0 0 2.68,-2 c 0.82,-0.72 1.5,-1.34 2,-1.86 h 1.18 v 11.69 c -1.1,0.55 -2.15,1.06 -3.15,1.54 a 23,23 0 0 1 -3.15,1.25 34.62,34.62 0 0 1 -4,1.05 A 29,29 0 0 1 450,196 Z"
       id="path24"
       inkscape:connector-curvature="0" />
    <path
       style="fill:#1c3761"
       class="cls-3"
       d="M 231.72,217.76 H 226 v 2.6 h 5.35 v 2.7 H 226 v 6 h -3.21 v -14 h 9 z"
       id="path26"
       inkscape:connector-curvature="0" />
    <path
       style="fill:#1c3761"
       class="cls-3"
       d="m 244,229 h -3 v -1.16 a 9.57,9.57 0 0 1 -1.54,1.08 3.6,3.6 0 0 1 -1.66,0.37 3,3 0 0 1 -2.41,-1 4.49,4.49 0 0 1 -0.85,-3 v -6.86 h 3 v 5.23 c 0,0.53 0,1 0,1.32 a 2.53,2.53 0 0 0 0.21,0.88 1.06,1.06 0 0 0 0.49,0.51 2,2 0 0 0 0.9,0.16 2.63,2.63 0 0 0 0.86,-0.16 3.76,3.76 0 0 0 1,-0.37 v -7.47 h 3 z"
       id="path28"
       inkscape:connector-curvature="0" />
    <path
       style="fill:#1c3761"
       class="cls-3"
       d="m 257.16,229 h -3 v -5.2 c 0,-0.42 0,-0.85 -0.06,-1.27 a 3.11,3.11 0 0 0 -0.2,-0.93 1.12,1.12 0 0 0 -0.5,-0.51 2,2 0 0 0 -0.9,-0.16 2.53,2.53 0 0 0 -0.84,0.15 4.3,4.3 0 0 0 -0.92,0.48 V 229 h -3 v -10.51 h 3 v 1.17 a 7.83,7.83 0 0 1 1.55,-1.08 3.64,3.64 0 0 1 1.65,-0.38 3,3 0 0 1 2.39,1 4.39,4.39 0 0 1 0.86,3 z"
       id="path30"
       inkscape:connector-curvature="0" />
    <path
       style="fill:#1c3761"
       class="cls-3"
       d="m 270,229 h -3 v -1.1 a 6.32,6.32 0 0 1 -1.46,1 3.45,3.45 0 0 1 -1.57,0.34 3.23,3.23 0 0 1 -2.76,-1.48 6.87,6.87 0 0 1 -1,-4 7.51,7.51 0 0 1 0.34,-2.38 5.94,5.94 0 0 1 1,-1.78 3.9,3.9 0 0 1 1.39,-1.09 3.72,3.72 0 0 1 1.63,-0.39 4.22,4.22 0 0 1 1.39,0.2 10.77,10.77 0 0 1 1.11,0.51 v -4.48 h 3 z m -3,-2.9 V 221 a 2.61,2.61 0 0 0 -0.67,-0.21 3.14,3.14 0 0 0 -0.65,-0.07 2.08,2.08 0 0 0 -1.79,0.83 3.94,3.94 0 0 0 -0.59,2.31 4.09,4.09 0 0 0 0.48,2.25 1.74,1.74 0 0 0 1.53,0.7 2.43,2.43 0 0 0 0.88,-0.18 2.91,2.91 0 0 0 0.72,-0.5 z"
       id="path32"
       inkscape:connector-curvature="0" />
    <path
       style="fill:#1c3761"
       class="cls-3"
       d="m 279.34,227.91 -0.61,0.5 a 4.53,4.53 0 0 1 -0.68,0.46 3.9,3.9 0 0 1 -0.92,0.33 5,5 0 0 1 -1.06,0.11 3,3 0 0 1 -2.25,-0.93 3.23,3.23 0 0 1 -0.91,-2.37 3.48,3.48 0 0 1 0.46,-1.89 3.16,3.16 0 0 1 1.32,-1.15 6.84,6.84 0 0 1 2.08,-0.6 c 0.83,-0.12 1.69,-0.21 2.58,-0.26 v -0.06 a 1.26,1.26 0 0 0 -0.63,-1.21 4.27,4.27 0 0 0 -1.89,-0.33 5.07,5.07 0 0 0 -1.6,0.29 c -0.56,0.2 -1,0.35 -1.22,0.46 h -0.28 v -2.54 a 14.44,14.44 0 0 1 1.57,-0.34 13.13,13.13 0 0 1 2.16,-0.19 6.16,6.16 0 0 1 3.73,0.89 3.28,3.28 0 0 1 1.15,2.78 V 229 h -3 z m 0,-1.64 v -2.19 c -0.41,0 -0.85,0.09 -1.33,0.16 a 5.28,5.28 0 0 0 -1.09,0.23 1.45,1.45 0 0 0 -0.69,0.46 1.25,1.25 0 0 0 -0.24,0.8 2.44,2.44 0 0 0 0.05,0.53 0.84,0.84 0 0 0 0.25,0.4 1.29,1.29 0 0 0 0.47,0.27 2.82,2.82 0 0 0 0.84,0.09 2.39,2.39 0 0 0 0.92,-0.2 2.88,2.88 0 0 0 0.82,-0.55 z"
       id="path34"
       inkscape:connector-curvature="0" />
    <path
       style="fill:#1c3761"
       class="cls-3"
       d="m 290.61,229.28 a 7.08,7.08 0 0 1 -2.16,-0.37 4.92,4.92 0 0 1 -1.71,-1 4.68,4.68 0 0 1 -1.1,-1.69 6.65,6.65 0 0 1 -0.39,-2.39 6.52,6.52 0 0 1 0.44,-2.54 4.7,4.7 0 0 1 1.23,-1.77 4.8,4.8 0 0 1 1.77,-1 7.22,7.22 0 0 1 2.08,-0.31 6.28,6.28 0 0 1 1.78,0.24 7.54,7.54 0 0 1 1.52,0.61 v 2.88 h -0.43 a 5.67,5.67 0 0 0 -0.42,-0.4 4.6,4.6 0 0 0 -0.61,-0.44 3.51,3.51 0 0 0 -0.76,-0.34 3,3 0 0 0 -1,-0.14 2.19,2.19 0 0 0 -1.86,0.86 3.73,3.73 0 0 0 -0.65,2.33 3.52,3.52 0 0 0 0.66,2.31 2.35,2.35 0 0 0 1.9,0.79 3.33,3.33 0 0 0 1,-0.15 3,3 0 0 0 0.76,-0.34 3.47,3.47 0 0 0 0.5,-0.39 c 0.15,-0.14 0.28,-0.28 0.4,-0.41 h 0.43 v 2.88 l -0.71,0.32 a 5,5 0 0 1 -0.85,0.27 c 0,0.1 0,0.23 0,0.37 0,0.14 0,0.27 0,0.38 a 3.14,3.14 0 0 1 -0.83,2.34 3,3 0 0 1 -2.19,0.83 c -0.19,0 -0.48,0 -0.85,-0.05 a 4.91,4.91 0 0 1 -0.94,-0.18 v -1.88 h 0.19 a 4.17,4.17 0 0 0 0.59,0.21 2.46,2.46 0 0 0 0.74,0.11 1.32,1.32 0 0 0 1,-0.37 1.55,1.55 0 0 0 0.35,-1.12 z"
       id="path36"
       inkscape:connector-curvature="0" />
    <path
       style="fill:#1c3761"
       class="cls-3"
       d="m 302.61,227.91 -0.61,0.5 a 4.53,4.53 0 0 1 -0.68,0.46 4,4 0 0 1 -0.93,0.33 4.9,4.9 0 0 1 -1.05,0.11 3,3 0 0 1 -2.25,-0.93 3.23,3.23 0 0 1 -0.91,-2.37 3.48,3.48 0 0 1 0.46,-1.89 3.2,3.2 0 0 1 1.36,-1.12 6.91,6.91 0 0 1 2.09,-0.6 c 0.83,-0.12 1.69,-0.21 2.58,-0.26 v -0.06 a 1.25,1.25 0 0 0 -0.64,-1.21 4.19,4.19 0 0 0 -1.88,-0.33 5.07,5.07 0 0 0 -1.6,0.29 c -0.57,0.2 -1,0.35 -1.22,0.46 H 297 v -2.54 a 14.69,14.69 0 0 1 1.56,-0.34 13.25,13.25 0 0 1 2.17,-0.19 6.16,6.16 0 0 1 3.73,0.89 3.28,3.28 0 0 1 1.15,2.78 V 229 h -3 z m 2.23,-14.06 a 4.1,4.1 0 0 1 -0.7,2.35 2,2 0 0 1 -1.7,0.76 1.66,1.66 0 0 1 -0.76,-0.17 c -0.23,-0.12 -0.45,-0.24 -0.65,-0.37 -0.2,-0.13 -0.36,-0.24 -0.57,-0.36 a 1.14,1.14 0 0 0 -0.53,-0.18 0.55,0.55 0 0 0 -0.55,0.3 2.23,2.23 0 0 0 -0.16,0.84 h -1.85 a 3.85,3.85 0 0 1 0.71,-2.26 2,2 0 0 1 1.68,-0.85 1.84,1.84 0 0 1 0.77,0.17 5.14,5.14 0 0 1 0.66,0.36 l 0.58,0.35 a 1,1 0 0 0 0.5,0.17 0.56,0.56 0 0 0 0.55,-0.3 1.81,1.81 0 0 0 0.17,-0.81 z m -2.23,12.42 v -2.19 c -0.41,0 -0.86,0.09 -1.33,0.16 a 5.28,5.28 0 0 0 -1.09,0.23 1.45,1.45 0 0 0 -0.69,0.46 1.25,1.25 0 0 0 -0.24,0.8 1.94,1.94 0 0 0 0.05,0.53 0.84,0.84 0 0 0 0.25,0.4 1.24,1.24 0 0 0 0.46,0.27 2.87,2.87 0 0 0 0.84,0.09 2.43,2.43 0 0 0 0.93,-0.2 2.88,2.88 0 0 0 0.82,-0.55 z"
       id="path38"
       inkscape:connector-curvature="0" />
    <path
       style="fill:#1c3761"
       class="cls-3"
       d="m 318.86,223.76 a 5.85,5.85 0 0 1 -1.36,4.1 5.6,5.6 0 0 1 -7.63,0 5.9,5.9 0 0 1 -1.36,-4.1 5.84,5.84 0 0 1 1.37,-4.1 5.59,5.59 0 0 1 7.63,0 5.88,5.88 0 0 1 1.35,4.1 z m -3.72,2.57 a 3,3 0 0 0 0.44,-1 6.46,6.46 0 0 0 0.14,-1.57 6.83,6.83 0 0 0 -0.15,-1.55 2.87,2.87 0 0 0 -0.42,-1 1.49,1.49 0 0 0 -0.64,-0.54 2.07,2.07 0 0 0 -0.82,-0.16 2.13,2.13 0 0 0 -0.78,0.13 1.56,1.56 0 0 0 -0.65,0.53 2.66,2.66 0 0 0 -0.44,1 6.47,6.47 0 0 0 -0.17,1.6 6.55,6.55 0 0 0 0.15,1.5 2.66,2.66 0 0 0 0.42,1 1.62,1.62 0 0 0 0.64,0.53 2.18,2.18 0 0 0 1.64,0 1.59,1.59 0 0 0 0.64,-0.47 z"
       id="path40"
       inkscape:connector-curvature="0" />
    <path
       style="fill:#1c3761"
       class="cls-3"
       d="m 338.74,224.64 a 4.13,4.13 0 0 1 -1.57,3.35 6.51,6.51 0 0 1 -4.26,1.29 10.84,10.84 0 0 1 -2.71,-0.3 13.52,13.52 0 0 1 -2.17,-0.78 v -3.35 h 0.35 a 7.24,7.24 0 0 0 2.25,1.37 6.56,6.56 0 0 0 2.38,0.48 c 0.2,0 0.45,0 0.77,0 a 2.86,2.86 0 0 0 0.79,-0.19 2.13,2.13 0 0 0 0.61,-0.42 1.06,1.06 0 0 0 0.24,-0.75 1.08,1.08 0 0 0 -0.35,-0.8 2.44,2.44 0 0 0 -1,-0.51 c -0.48,-0.12 -1,-0.24 -1.5,-0.35 a 10.51,10.51 0 0 1 -1.47,-0.42 4.59,4.59 0 0 1 -2.28,-1.55 4.16,4.16 0 0 1 -0.69,-2.44 3.87,3.87 0 0 1 1.56,-3.18 6.38,6.38 0 0 1 4,-1.23 11.41,11.41 0 0 1 4.53,0.93 V 219 h -0.34 a 6.41,6.41 0 0 0 -1.86,-1.13 5.86,5.86 0 0 0 -2.24,-0.45 5.29,5.29 0 0 0 -0.8,0.06 2.86,2.86 0 0 0 -0.77,0.23 1.46,1.46 0 0 0 -0.57,0.42 1.06,1.06 0 0 0 -0.23,0.66 1,1 0 0 0 0.38,0.84 3.85,3.85 0 0 0 1.43,0.54 l 1.32,0.31 a 11.61,11.61 0 0 1 1.37,0.42 4.42,4.42 0 0 1 2.12,1.43 3.77,3.77 0 0 1 0.71,2.31 z"
       id="path42"
       inkscape:connector-curvature="0" />
    <path
       style="fill:#1c3761"
       class="cls-3"
       d="m 347.64,228.94 a 8,8 0 0 1 -1,0.21 8.52,8.52 0 0 1 -1.34,0.08 3.79,3.79 0 0 1 -2.63,-0.79 3.61,3.61 0 0 1 -0.86,-2.73 v -4.93 h -1.24 v -2.29 h 1.24 v -3 h 3 v 3 h 2.83 v 2.29 h -2.83 v 3.74 c 0,0.37 0,0.69 0,1 a 2.12,2.12 0 0 0 0.13,0.74 1,1 0 0 0 0.42,0.52 1.57,1.57 0 0 0 0.86,0.19 2.08,2.08 0 0 0 0.62,-0.11 2.19,2.19 0 0 0 0.53,-0.2 h 0.26 z"
       id="path44"
       inkscape:connector-curvature="0" />
    <path
       style="fill:#1c3761"
       class="cls-3"
       d="m 359.56,224.38 h -6.93 a 2.52,2.52 0 0 0 0.84,1.9 3.47,3.47 0 0 0 2.29,0.66 4.63,4.63 0 0 0 1.86,-0.39 5.68,5.68 0 0 0 1.43,-0.82 h 0.33 v 2.71 a 10.28,10.28 0 0 1 -1.93,0.66 9,9 0 0 1 -2,0.21 6.12,6.12 0 0 1 -4.36,-1.43 5.3,5.3 0 0 1 -1.52,-4.06 5.77,5.77 0 0 1 1.44,-4.13 5.14,5.14 0 0 1 3.93,-1.53 4.44,4.44 0 0 1 3.47,1.3 5.47,5.47 0 0 1 1.16,3.74 z m -3,-2 a 2.61,2.61 0 0 0 -0.47,-1.59 1.7,1.7 0 0 0 -1.39,-0.54 2.06,2.06 0 0 0 -1.44,0.51 2.24,2.24 0 0 0 -0.63,1.62 z"
       id="path46"
       inkscape:connector-curvature="0" />
    <path
       style="fill:#1c3761"
       class="cls-3"
       d="M 371.74,221.56 V 229 h -3 v -5.27 c 0,-0.51 0,-0.94 0,-1.3 a 2.75,2.75 0 0 0 -0.19,-0.88 0.92,0.92 0 0 0 -0.46,-0.49 1.83,1.83 0 0 0 -0.86,-0.16 2,2 0 0 0 -0.87,0.2 6.46,6.46 0 0 0 -0.75,0.43 V 229 h -3 v -10.51 h 3 v 1.17 a 7.92,7.92 0 0 1 1.49,-1.07 3.25,3.25 0 0 1 1.58,-0.39 3,3 0 0 1 1.65,0.47 3.11,3.11 0 0 1 1.12,1.36 9,9 0 0 1 1.76,-1.34 3.33,3.33 0 0 1 1.68,-0.49 2.76,2.76 0 0 1 2.32,1 4.75,4.75 0 0 1 0.8,2.95 V 229 h -3 v -5.27 c 0,-0.51 0,-0.95 0,-1.31 a 2.51,2.51 0 0 0 -0.18,-0.87 0.94,0.94 0 0 0 -0.45,-0.49 2.18,2.18 0 0 0 -1.62,0 4.42,4.42 0 0 0 -1.02,0.5 z"
       id="path48"
       inkscape:connector-curvature="0" />
    <path
       style="fill:#1c3761"
       class="cls-3"
       d="M 390.78,221.56 V 229 h -3 v -5.27 c 0,-0.51 0,-0.94 0,-1.3 a 2.75,2.75 0 0 0 -0.19,-0.88 0.92,0.92 0 0 0 -0.46,-0.49 1.83,1.83 0 0 0 -0.86,-0.16 2,2 0 0 0 -0.87,0.2 6.46,6.46 0 0 0 -0.75,0.43 V 229 h -3 v -10.51 h 3 v 1.17 a 7.92,7.92 0 0 1 1.49,-1.07 3.27,3.27 0 0 1 1.58,-0.39 3,3 0 0 1 1.65,0.47 3,3 0 0 1 1.12,1.36 9,9 0 0 1 1.76,-1.34 3.33,3.33 0 0 1 1.68,-0.49 2.75,2.75 0 0 1 2.32,1 4.75,4.75 0 0 1 0.8,2.95 V 229 h -3 v -5.27 c 0,-0.51 0,-0.95 0,-1.31 a 2.51,2.51 0 0 0 -0.18,-0.87 0.9,0.9 0 0 0 -0.45,-0.49 2.18,2.18 0 0 0 -1.62,0 4.71,4.71 0 0 0 -1.02,0.5 z"
       id="path50"
       inkscape:connector-curvature="0" />
    <path
       style="fill:#1c3761"
       class="cls-3"
       d="M 409.9,224.38 H 403 a 2.56,2.56 0 0 0 0.85,1.9 3.46,3.46 0 0 0 2.29,0.66 4.63,4.63 0 0 0 1.86,-0.39 5.43,5.43 0 0 0 1.42,-0.82 h 0.34 v 2.71 a 10.12,10.12 0 0 1 -1.94,0.66 8.86,8.86 0 0 1 -2,0.21 6.1,6.1 0 0 1 -4.35,-1.43 5.3,5.3 0 0 1 -1.52,-4.06 5.77,5.77 0 0 1 1.44,-4.13 5.11,5.11 0 0 1 3.93,-1.53 4.41,4.41 0 0 1 3.46,1.3 5.43,5.43 0 0 1 1.17,3.74 z m -3,-2 a 2.49,2.49 0 0 0 -0.47,-1.59 1.69,1.69 0 0 0 -1.39,-0.54 2,2 0 0 0 -1.43,0.51 2.29,2.29 0 0 0 -0.64,1.62 z"
       id="path52"
       inkscape:connector-curvature="0" />
    <path
       style="fill:#1c3761"
       class="cls-3"
       d="m 419.69,221.71 h -0.27 a 2.23,2.23 0 0 0 -0.62,-0.11 6.71,6.71 0 0 0 -0.71,0 6.43,6.43 0 0 0 -1.14,0.09 6.67,6.67 0 0 0 -1.07,0.32 V 229 h -3 v -10.51 h 3 V 220 a 6.19,6.19 0 0 1 1.74,-1.27 3.45,3.45 0 0 1 1.36,-0.31 h 0.36 0.35 z"
       id="path54"
       inkscape:connector-curvature="0" />
    <path
       style="fill:#1c3761"
       class="cls-3"
       d="m 438.78,223.61 a 7.43,7.43 0 0 1 -0.36,2.38 5.34,5.34 0 0 1 -0.94,1.76 4.1,4.1 0 0 1 -1.37,1.11 3.64,3.64 0 0 1 -1.63,0.37 4.19,4.19 0 0 1 -1.37,-0.19 6.64,6.64 0 0 1 -1.16,-0.54 v 4.39 h -3 v -14.4 h 3 v 1.1 a 7.14,7.14 0 0 1 1.43,-1 3.46,3.46 0 0 1 1.67,-0.39 3.12,3.12 0 0 1 2.75,1.45 7,7 0 0 1 0.98,3.96 z m -3.12,0.08 a 4.09,4.09 0 0 0 -0.47,-2.23 1.67,1.67 0 0 0 -1.49,-0.7 2.81,2.81 0 0 0 -0.88,0.15 3.44,3.44 0 0 0 -0.87,0.41 v 5.3 a 2.83,2.83 0 0 0 0.65,0.17 h 0.68 a 2.1,2.1 0 0 0 1.79,-0.78 3.89,3.89 0 0 0 0.59,-2.32 z"
       id="path56"
       inkscape:connector-curvature="0" />
    <path
       style="fill:#1c3761"
       class="cls-3"
       d="m 447.5,227.91 -0.61,0.5 a 4.53,4.53 0 0 1 -0.68,0.46 4,4 0 0 1 -0.93,0.33 4.9,4.9 0 0 1 -1,0.11 3,3 0 0 1 -2.25,-0.93 3.23,3.23 0 0 1 -0.91,-2.37 3.48,3.48 0 0 1 0.46,-1.89 3.2,3.2 0 0 1 1.31,-1.15 6.91,6.91 0 0 1 2.09,-0.6 c 0.83,-0.12 1.69,-0.21 2.58,-0.26 v -0.06 a 1.25,1.25 0 0 0 -0.64,-1.21 4.19,4.19 0 0 0 -1.88,-0.33 5.07,5.07 0 0 0 -1.6,0.29 c -0.57,0.2 -1,0.35 -1.22,0.46 h -0.28 v -2.54 a 14.69,14.69 0 0 1 1.56,-0.34 13.25,13.25 0 0 1 2.17,-0.19 6.16,6.16 0 0 1 3.73,0.89 3.28,3.28 0 0 1 1.15,2.78 V 229 h -3 z m 0,-1.64 v -2.19 c -0.41,0 -0.86,0.09 -1.33,0.16 a 5.28,5.28 0 0 0 -1.09,0.23 1.45,1.45 0 0 0 -0.69,0.46 1.25,1.25 0 0 0 -0.24,0.8 1.94,1.94 0 0 0 0.05,0.53 0.84,0.84 0 0 0 0.25,0.4 1.24,1.24 0 0 0 0.46,0.27 2.87,2.87 0 0 0 0.84,0.09 2.43,2.43 0 0 0 0.93,-0.2 2.88,2.88 0 0 0 0.82,-0.55 z"
       id="path58"
       inkscape:connector-curvature="0" />
    <path
       style="fill:#1c3761"
       class="cls-3"
       d="m 460.94,221.71 h -0.27 a 2.16,2.16 0 0 0 -0.62,-0.11 6.71,6.71 0 0 0 -0.71,0 6.43,6.43 0 0 0 -1.14,0.09 6.67,6.67 0 0 0 -1.07,0.32 V 229 h -3 v -10.51 h 3 V 220 a 6.34,6.34 0 0 1 1.74,-1.27 3.49,3.49 0 0 1 1.36,-0.31 h 0.36 0.35 z"
       id="path60"
       inkscape:connector-curvature="0" />
    <path
       style="fill:#1c3761"
       class="cls-3"
       d="m 469.19,227.91 c -0.16,0.14 -0.36,0.31 -0.61,0.5 a 4.08,4.08 0 0 1 -0.68,0.46 3.74,3.74 0 0 1 -0.92,0.33 4.9,4.9 0 0 1 -1.05,0.11 3,3 0 0 1 -2.26,-0.93 3.28,3.28 0 0 1 -0.91,-2.37 3.48,3.48 0 0 1 0.47,-1.89 3.08,3.08 0 0 1 1.31,-1.15 6.84,6.84 0 0 1 2.08,-0.6 c 0.83,-0.12 1.7,-0.21 2.59,-0.26 v -0.06 a 1.26,1.26 0 0 0 -0.64,-1.21 4.27,4.27 0 0 0 -1.89,-0.33 5.07,5.07 0 0 0 -1.6,0.29 c -0.56,0.2 -1,0.35 -1.22,0.46 h -0.27 v -2.54 a 14.69,14.69 0 0 1 1.56,-0.34 13.13,13.13 0 0 1 2.16,-0.19 6.19,6.19 0 0 1 3.74,0.89 3.3,3.3 0 0 1 1.14,2.78 V 229 h -3 z m 0,-1.64 v -2.19 c -0.41,0 -0.85,0.09 -1.33,0.16 a 5,5 0 0 0 -1.08,0.23 1.44,1.44 0 0 0 -0.7,0.46 1.25,1.25 0 0 0 -0.24,0.8 2.44,2.44 0 0 0 0.05,0.53 0.92,0.92 0 0 0 0.25,0.4 1.29,1.29 0 0 0 0.47,0.27 2.87,2.87 0 0 0 0.84,0.09 2.39,2.39 0 0 0 0.92,-0.2 2.88,2.88 0 0 0 0.82,-0.55 z"
       id="path62"
       inkscape:connector-curvature="0" />
    <path
       style="fill:#1c3761"
       class="cls-3"
       d="m 233.08,240.15 a 6,6 0 0 1 -0.29,1.83 4.19,4.19 0 0 1 -0.85,1.51 5,5 0 0 1 -1.67,1.24 5.48,5.48 0 0 1 -2.29,0.42 h -2 v 4.55 h -3.23 v -14 h 5.32 a 7.26,7.26 0 0 1 2,0.23 4.33,4.33 0 0 1 1.45,0.69 3.55,3.55 0 0 1 1.16,1.41 4.89,4.89 0 0 1 0.4,2.12 z m -3.34,0.08 a 1.7,1.7 0 0 0 -0.29,-1 1.59,1.59 0 0 0 -0.66,-0.59 2.68,2.68 0 0 0 -1,-0.25 c -0.32,0 -0.75,0 -1.28,0 H 226 v 4.18 h 0.93 a 7.23,7.23 0 0 0 1.36,-0.11 1.93,1.93 0 0 0 0.89,-0.45 1.69,1.69 0 0 0 0.45,-0.72 3.28,3.28 0 0 0 0.11,-1.06 z"
       id="path64"
       inkscape:connector-curvature="0" />
    <path
       style="fill:#1c3761"
       class="cls-3"
       d="m 244.51,245.06 h -6.94 a 2.56,2.56 0 0 0 0.85,1.9 3.51,3.51 0 0 0 2.29,0.65 4.62,4.62 0 0 0 1.86,-0.38 5.43,5.43 0 0 0 1.42,-0.83 h 0.34 v 2.71 a 10.19,10.19 0 0 1 -1.94,0.67 8.86,8.86 0 0 1 -2,0.21 6.1,6.1 0 0 1 -4.35,-1.43 5.3,5.3 0 0 1 -1.52,-4.06 5.75,5.75 0 0 1 1.44,-4.13 5.11,5.11 0 0 1 3.93,-1.53 4.41,4.41 0 0 1 3.47,1.3 5.46,5.46 0 0 1 1.16,3.74 z m -3,-2 a 2.47,2.47 0 0 0 -0.47,-1.59 1.69,1.69 0 0 0 -1.39,-0.54 2,2 0 0 0 -1.43,0.51 2.29,2.29 0 0 0 -0.64,1.62 z"
       id="path66"
       inkscape:connector-curvature="0" />
    <path
       style="fill:#1c3761"
       class="cls-3"
       d="m 254.85,246.36 a 3.15,3.15 0 0 1 -1.31,2.64 5.82,5.82 0 0 1 -3.59,1 9,9 0 0 1 -2.29,-0.27 8.17,8.17 0 0 1 -1.65,-0.58 v -2.78 h 0.28 l 0.53,0.39 a 5.1,5.1 0 0 0 0.84,0.46 6.68,6.68 0 0 0 1.07,0.37 5.22,5.22 0 0 0 1.28,0.15 3,3 0 0 0 1.32,-0.22 0.68,0.68 0 0 0 0.43,-0.65 0.66,0.66 0 0 0 -0.25,-0.56 3.39,3.39 0 0 0 -1,-0.33 c -0.23,-0.06 -0.53,-0.12 -0.92,-0.18 -0.39,-0.06 -0.73,-0.15 -1,-0.24 a 3.6,3.6 0 0 1 -1.91,-1.17 3.22,3.22 0 0 1 0.67,-4.5 5.53,5.53 0 0 1 3.53,-1 8.48,8.48 0 0 1 2,0.24 8.08,8.08 0 0 1 1.52,0.51 v 2.66 h -0.27 a 6.08,6.08 0 0 0 -1.53,-0.84 5.1,5.1 0 0 0 -1.75,-0.32 3,3 0 0 0 -1.23,0.23 0.7,0.7 0 0 0 -0.5,0.63 0.75,0.75 0 0 0 0.23,0.58 2.83,2.83 0 0 0 1.07,0.39 c 0.3,0.07 0.64,0.14 1,0.2 0.36,0.06 0.72,0.15 1.08,0.25 a 3.33,3.33 0 0 1 1.76,1.09 3,3 0 0 1 0.59,1.85 z"
       id="path68"
       inkscape:connector-curvature="0" />
    <path
       style="fill:#1c3761"
       class="cls-3"
       d="m 266.05,253.57 h -3 v -4.9 a 6,6 0 0 1 -1.45,1 3.71,3.71 0 0 1 -1.6,0.33 3.21,3.21 0 0 1 -2.76,-1.49 6.91,6.91 0 0 1 -1,-4 7.5,7.5 0 0 1 0.35,-2.38 5.71,5.71 0 0 1 0.95,-1.78 4.08,4.08 0 0 1 1.39,-1.09 3.75,3.75 0 0 1 1.63,-0.39 4,4 0 0 1 1.34,0.2 6.7,6.7 0 0 1 1.15,0.56 l 0.11,-0.47 h 2.94 z m -3,-6.76 v -5.18 a 3.18,3.18 0 0 0 -0.68,-0.22 3.81,3.81 0 0 0 -0.64,-0.06 2,2 0 0 0 -1.79,0.83 3.87,3.87 0 0 0 -0.6,2.31 4,4 0 0 0 0.48,2.24 1.72,1.72 0 0 0 1.54,0.7 2.39,2.39 0 0 0 0.87,-0.17 3.08,3.08 0 0 0 0.77,-0.45 z"
       id="path70"
       inkscape:connector-curvature="0" />
    <path
       style="fill:#1c3761"
       class="cls-3"
       d="m 278.33,249.7 h -3 v -1.16 a 8.71,8.71 0 0 1 -1.54,1.09 3.57,3.57 0 0 1 -1.66,0.37 3,3 0 0 1 -2.41,-1 4.52,4.52 0 0 1 -0.84,-3 v -6.86 h 3 v 5.22 c 0,0.54 0,1 0,1.33 a 2.31,2.31 0 0 0 0.22,0.88 1,1 0 0 0 0.48,0.51 2.22,2.22 0 0 0 0.9,0.15 2.83,2.83 0 0 0 0.86,-0.15 3.75,3.75 0 0 0 0.91,-0.47 v -7.47 h 3 z"
       id="path72"
       inkscape:connector-curvature="0" />
    <path
       style="fill:#1c3761"
       class="cls-3"
       d="m 284.31,237.67 h -3.21 v -2.56 h 3.21 z m -0.08,12 h -3 v -10.5 h 3 z"
       id="path74"
       inkscape:connector-curvature="0" />
    <path
       style="fill:#1c3761"
       class="cls-3"
       d="M 295.29,246.36 A 3.18,3.18 0 0 1 294,249 a 5.84,5.84 0 0 1 -3.59,1 8.94,8.94 0 0 1 -2.29,-0.27 7.74,7.74 0 0 1 -1.65,-0.58 v -2.78 h 0.28 l 0.52,0.39 a 4.85,4.85 0 0 0 0.85,0.46 6.35,6.35 0 0 0 1.07,0.37 5.14,5.14 0 0 0 1.27,0.15 2.94,2.94 0 0 0 1.32,-0.22 0.68,0.68 0 0 0 0.43,-0.65 0.64,0.64 0 0 0 -0.25,-0.56 3.39,3.39 0 0 0 -1,-0.33 9.1,9.1 0 0 0 -0.91,-0.18 q -0.57,-0.11 -1.05,-0.24 a 3.64,3.64 0 0 1 -1.91,-1.17 3.13,3.13 0 0 1 -0.62,-2 3.08,3.08 0 0 1 1.29,-2.53 5.55,5.55 0 0 1 3.53,-1 8.42,8.42 0 0 1 2,0.24 7.6,7.6 0 0 1 1.52,0.51 v 2.66 h -0.26 a 6.15,6.15 0 0 0 -1.54,-0.84 5,5 0 0 0 -1.74,-0.32 3,3 0 0 0 -1.23,0.23 0.69,0.69 0 0 0 -0.5,0.63 0.75,0.75 0 0 0 0.22,0.58 2.91,2.91 0 0 0 1.07,0.39 c 0.31,0.07 0.64,0.14 1,0.2 0.36,0.06 0.71,0.15 1.07,0.25 a 3.32,3.32 0 0 1 1.77,1.09 3,3 0 0 1 0.62,1.88 z"
       id="path76"
       inkscape:connector-curvature="0" />
    <path
       style="fill:#1c3761"
       class="cls-3"
       d="m 303,248.59 -0.6,0.5 a 5.5,5.5 0 0 1 -0.69,0.46 4.2,4.2 0 0 1 -0.92,0.33 4.9,4.9 0 0 1 -1.05,0.11 3,3 0 0 1 -2.26,-0.93 3.28,3.28 0 0 1 -0.91,-2.38 3.47,3.47 0 0 1 0.47,-1.88 3.23,3.23 0 0 1 1.31,-1.16 6.91,6.91 0 0 1 2.09,-0.6 c 0.83,-0.11 1.69,-0.2 2.58,-0.26 v -0.05 a 1.23,1.23 0 0 0 -0.64,-1.21 4.24,4.24 0 0 0 -1.89,-0.33 4.75,4.75 0 0 0 -1.59,0.29 c -0.57,0.2 -1,0.35 -1.22,0.46 h -0.28 v -2.55 q 0.48,-0.13 1.56,-0.33 a 12.16,12.16 0 0 1 2.17,-0.19 6.11,6.11 0 0 1 3.73,0.89 3.3,3.3 0 0 1 1.15,2.78 v 7.16 h -3 z m 0,-1.64 v -2.19 c -0.41,0 -0.85,0.09 -1.33,0.16 a 6.05,6.05 0 0 0 -1.08,0.22 1.45,1.45 0 0 0 -0.7,0.47 1.25,1.25 0 0 0 -0.24,0.8 2.5,2.5 0 0 0 0.05,0.53 0.79,0.79 0 0 0 0.26,0.39 1.14,1.14 0 0 0 0.46,0.28 2.87,2.87 0 0 0 0.84,0.09 2.23,2.23 0 0 0 0.92,-0.21 A 2.92,2.92 0 0 0 303,247 Z"
       id="path78"
       inkscape:connector-curvature="0" />
    <path
       style="fill:#1c3761"
       class="cls-3"
       d="m 312.58,246 -3,7.16 h -1.88 l 1.66,-7.16 z"
       id="path80"
       inkscape:connector-curvature="0" />
    <path
       style="fill:#1c3761"
       class="cls-3"
       d="m 332.93,242.74 a 7.39,7.39 0 0 1 -0.8,3.49 6.16,6.16 0 0 1 -2,2.37 5.8,5.8 0 0 1 -2,0.86 12.21,12.21 0 0 1 -2.59,0.24 h -4.42 v -14 h 4.55 a 10.74,10.74 0 0 1 2.64,0.28 5.84,5.84 0 0 1 1.87,0.81 6.16,6.16 0 0 1 2,2.38 7.92,7.92 0 0 1 0.75,3.57 z m -3.34,0 a 5.61,5.61 0 0 0 -0.45,-2.36 3.31,3.31 0 0 0 -1.42,-1.54 3.58,3.58 0 0 0 -1,-0.37 9.56,9.56 0 0 0 -1.56,-0.1 h -0.81 v 8.75 h 0.81 a 8.53,8.53 0 0 0 1.69,-0.12 3.38,3.38 0 0 0 1.05,-0.43 3.32,3.32 0 0 0 1.3,-1.5 5.75,5.75 0 0 0 0.39,-2.36 z"
       id="path82"
       inkscape:connector-curvature="0" />
    <path
       style="fill:#1c3761"
       class="cls-3"
       d="m 344.53,245.06 h -6.93 a 2.56,2.56 0 0 0 0.85,1.9 3.51,3.51 0 0 0 2.29,0.65 4.62,4.62 0 0 0 1.86,-0.38 5.6,5.6 0 0 0 1.42,-0.83 h 0.34 v 2.71 a 10.44,10.44 0 0 1 -1.94,0.67 8.86,8.86 0 0 1 -2,0.21 6.14,6.14 0 0 1 -4.36,-1.43 5.3,5.3 0 0 1 -1.51,-4.06 5.79,5.79 0 0 1 1.43,-4.13 5.14,5.14 0 0 1 3.94,-1.53 4.39,4.39 0 0 1 3.46,1.3 5.41,5.41 0 0 1 1.16,3.74 z m -3,-2 a 2.47,2.47 0 0 0 -0.47,-1.59 1.7,1.7 0 0 0 -1.39,-0.54 2.08,2.08 0 0 0 -1.44,0.51 2.33,2.33 0 0 0 -0.63,1.62 z"
       id="path84"
       inkscape:connector-curvature="0" />
    <path
       style="fill:#1c3761"
       class="cls-3"
       d="m 354.88,246.36 a 3.15,3.15 0 0 1 -1.31,2.64 5.82,5.82 0 0 1 -3.59,1 9,9 0 0 1 -2.29,-0.27 8.17,8.17 0 0 1 -1.65,-0.58 v -2.78 h 0.28 l 0.52,0.39 a 5.26,5.26 0 0 0 0.85,0.46 6.35,6.35 0 0 0 1.07,0.37 5.22,5.22 0 0 0 1.28,0.15 3,3 0 0 0 1.32,-0.22 0.7,0.7 0 0 0 0.43,-0.65 0.65,0.65 0 0 0 -0.26,-0.56 3.18,3.18 0 0 0 -0.95,-0.33 c -0.23,-0.06 -0.53,-0.12 -0.92,-0.18 -0.39,-0.06 -0.73,-0.15 -1,-0.24 a 3.6,3.6 0 0 1 -1.91,-1.17 3.23,3.23 0 0 1 0.66,-4.5 5.55,5.55 0 0 1 3.53,-1 8.51,8.51 0 0 1 2,0.24 7.71,7.71 0 0 1 1.51,0.51 v 2.66 h -0.26 a 6.26,6.26 0 0 0 -1.53,-0.84 5.1,5.1 0 0 0 -1.75,-0.32 3,3 0 0 0 -1.23,0.23 0.7,0.7 0 0 0 -0.5,0.63 0.72,0.72 0 0 0 0.23,0.58 2.84,2.84 0 0 0 1.06,0.39 l 1,0.2 c 0.36,0.07 0.71,0.15 1.07,0.25 a 3.32,3.32 0 0 1 1.77,1.09 3,3 0 0 1 0.57,1.85 z"
       id="path86"
       inkscape:connector-curvature="0" />
    <path
       style="fill:#1c3761"
       class="cls-3"
       d="m 366.2,245.06 h -6.93 a 2.52,2.52 0 0 0 0.84,1.9 3.53,3.53 0 0 0 2.29,0.65 4.62,4.62 0 0 0 1.86,-0.38 5.68,5.68 0 0 0 1.43,-0.83 H 366 v 2.71 a 10.36,10.36 0 0 1 -1.93,0.67 9,9 0 0 1 -2,0.21 6.12,6.12 0 0 1 -4.36,-1.43 5.3,5.3 0 0 1 -1.52,-4.06 5.75,5.75 0 0 1 1.44,-4.13 5.14,5.14 0 0 1 3.93,-1.53 4.41,4.41 0 0 1 3.47,1.3 5.46,5.46 0 0 1 1.16,3.74 z m -3,-2 a 2.59,2.59 0 0 0 -0.47,-1.59 1.7,1.7 0 0 0 -1.39,-0.54 2.06,2.06 0 0 0 -1.44,0.51 2.24,2.24 0 0 0 -0.63,1.62 z"
       id="path88"
       inkscape:connector-curvature="0" />
    <path
       style="fill:#1c3761"
       class="cls-3"
       d="m 377.83,249.7 h -3 v -5.22 c 0,-0.43 0,-0.85 -0.06,-1.27 a 3.19,3.19 0 0 0 -0.2,-0.94 1.08,1.08 0 0 0 -0.49,-0.5 2.06,2.06 0 0 0 -0.91,-0.16 2.47,2.47 0 0 0 -0.83,0.15 4.13,4.13 0 0 0 -0.93,0.48 v 7.46 h -3 v -10.53 h 3 v 1.16 a 7.83,7.83 0 0 1 1.55,-1.08 3.65,3.65 0 0 1 1.66,-0.37 3,3 0 0 1 2.39,1 4.49,4.49 0 0 1 0.86,3 z"
       id="path90"
       inkscape:connector-curvature="0" />
    <path
       style="fill:#1c3761"
       class="cls-3"
       d="m 390.13,239.17 -3.65,10.53 h -3.43 l -3.62,-10.53 h 3.2 l 2.2,7.25 2.16,-7.25 z"
       id="path92"
       inkscape:connector-curvature="0" />
    <path
       style="fill:#1c3761"
       class="cls-3"
       d="m 401.47,244.44 a 5.87,5.87 0 0 1 -1.36,4.1 5.63,5.63 0 0 1 -7.63,0 6.86,6.86 0 0 1 0,-8.21 5.62,5.62 0 0 1 7.63,0 5.91,5.91 0 0 1 1.36,4.11 z m -3.73,2.56 a 2.79,2.79 0 0 0 0.44,-1 6.43,6.43 0 0 0 0.15,-1.57 6.86,6.86 0 0 0 -0.15,-1.56 2.81,2.81 0 0 0 -0.42,-1 1.45,1.45 0 0 0 -0.65,-0.54 2,2 0 0 0 -0.82,-0.16 2,2 0 0 0 -0.77,0.13 1.55,1.55 0 0 0 -0.66,0.52 3,3 0 0 0 -0.44,1 6.53,6.53 0 0 0 -0.16,1.6 7.22,7.22 0 0 0 0.14,1.5 3,3 0 0 0 0.42,1 1.64,1.64 0 0 0 0.65,0.53 2.08,2.08 0 0 0 0.85,0.17 2,2 0 0 0 0.79,-0.16 1.37,1.37 0 0 0 0.63,-0.46 z"
       id="path94"
       inkscape:connector-curvature="0" />
    <path
       style="fill:#1c3761"
       class="cls-3"
       d="m 406.68,249.7 h -3 v -14.59 h 3 z"
       id="path96"
       inkscape:connector-curvature="0" />
    <path
       style="fill:#1c3761"
       class="cls-3"
       d="m 419,239.17 -3.6,10.53 H 412 l -3.62,-10.53 h 3.2 l 2.19,7.25 2.17,-7.25 z"
       id="path98"
       inkscape:connector-curvature="0" />
    <path
       style="fill:#1c3761"
       class="cls-3"
       d="m 423.85,237.67 h -3.21 v -2.56 h 3.21 z m -0.09,12 h -3 v -10.5 h 3 z"
       id="path100"
       inkscape:connector-curvature="0" />
    <path
       style="fill:#1c3761"
       class="cls-3"
       d="m 435.85,242.24 v 7.46 h -3 v -5.26 c 0,-0.51 0,-0.95 0,-1.31 a 2.68,2.68 0 0 0 -0.19,-0.87 1,1 0 0 0 -0.46,-0.5 2,2 0 0 0 -0.86,-0.15 2,2 0 0 0 -0.87,0.2 5.28,5.28 0 0 0 -0.75,0.43 v 7.46 h -3 v -10.53 h 3 v 1.16 a 9,9 0 0 1 1.49,-1.07 3.35,3.35 0 0 1 1.58,-0.38 3,3 0 0 1 1.65,0.46 3.14,3.14 0 0 1 1.12,1.37 9,9 0 0 1 1.76,-1.34 3.33,3.33 0 0 1 1.68,-0.49 2.76,2.76 0 0 1 2.32,1 4.73,4.73 0 0 1 0.8,2.95 v 6.85 h -3 v -5.26 c 0,-0.52 0,-0.95 0,-1.31 a 2.46,2.46 0 0 0 -0.18,-0.87 1,1 0 0 0 -0.45,-0.5 2.08,2.08 0 0 0 -0.88,-0.15 2.11,2.11 0 0 0 -0.74,0.14 5.16,5.16 0 0 0 -1.02,0.51 z"
       id="path102"
       inkscape:connector-curvature="0" />
    <path
       style="fill:#1c3761"
       class="cls-3"
       d="m 454.15,245.06 h -6.93 a 2.56,2.56 0 0 0 0.85,1.9 3.51,3.51 0 0 0 2.29,0.65 4.62,4.62 0 0 0 1.86,-0.38 5.6,5.6 0 0 0 1.42,-0.83 H 454 v 2.71 a 10.44,10.44 0 0 1 -1.94,0.67 8.86,8.86 0 0 1 -2,0.21 6.14,6.14 0 0 1 -4.36,-1.43 5.3,5.3 0 0 1 -1.51,-4.06 5.79,5.79 0 0 1 1.43,-4.13 5.14,5.14 0 0 1 3.94,-1.53 4.39,4.39 0 0 1 3.46,1.3 5.41,5.41 0 0 1 1.16,3.74 z m -3,-2 a 2.47,2.47 0 0 0 -0.47,-1.59 1.7,1.7 0 0 0 -1.39,-0.54 2.08,2.08 0 0 0 -1.44,0.51 2.33,2.33 0 0 0 -0.63,1.62 z"
       id="path104"
       inkscape:connector-curvature="0" />
    <path
       style="fill:#1c3761"
       class="cls-3"
       d="m 465.78,249.7 h -3 v -5.22 c 0,-0.43 0,-0.85 -0.05,-1.27 a 2.85,2.85 0 0 0 -0.21,-0.94 1,1 0 0 0 -0.49,-0.5 2,2 0 0 0 -0.9,-0.16 2.48,2.48 0 0 0 -0.84,0.15 4.3,4.3 0 0 0 -0.92,0.48 v 7.46 h -3 v -10.53 h 3 v 1.16 a 7.55,7.55 0 0 1 1.55,-1.08 3.6,3.6 0 0 1 1.65,-0.37 3,3 0 0 1 2.39,1 4.44,4.44 0 0 1 0.86,3 z"
       id="path106"
       inkscape:connector-curvature="0" />
    <path
       style="fill:#1c3761"
       class="cls-3"
       d="m 474.61,249.61 a 8,8 0 0 1 -1,0.22 9.88,9.88 0 0 1 -1.33,0.08 3.71,3.71 0 0 1 -2.63,-0.8 3.57,3.57 0 0 1 -0.87,-2.73 v -4.92 h -1.28 v -2.29 h 1.24 v -3 h 3 v 3 h 2.83 v 2.29 h -2.83 v 3.74 c 0,0.37 0,0.69 0,1 a 2.44,2.44 0 0 0 0.13,0.74 1,1 0 0 0 0.42,0.52 1.61,1.61 0 0 0 0.87,0.19 2.47,2.47 0 0 0 0.61,-0.11 2.22,2.22 0 0 0 0.54,-0.21 h 0.25 z"
       id="path108"
       inkscape:connector-curvature="0" />
    <path
       style="fill:#1c3761"
       class="cls-3"
       d="m 486.08,244.44 a 5.91,5.91 0 0 1 -1.36,4.1 5.63,5.63 0 0 1 -7.63,0 6.88,6.88 0 0 1 0,-8.21 4.93,4.93 0 0 1 3.81,-1.49 4.87,4.87 0 0 1 3.82,1.5 5.87,5.87 0 0 1 1.36,4.1 z m -3.73,2.56 a 3,3 0 0 0 0.44,-1 6.43,6.43 0 0 0 0.15,-1.57 6.86,6.86 0 0 0 -0.15,-1.56 3,3 0 0 0 -0.43,-1 1.38,1.38 0 0 0 -0.64,-0.54 2.07,2.07 0 0 0 -0.82,-0.16 2.13,2.13 0 0 0 -0.78,0.13 1.59,1.59 0 0 0 -0.65,0.52 3,3 0 0 0 -0.44,1 6.47,6.47 0 0 0 -0.17,1.6 6.55,6.55 0 0 0 0.14,1.58 2.66,2.66 0 0 0 0.42,1 1.62,1.62 0 0 0 0.64,0.53 2.13,2.13 0 0 0 0.86,0.17 1.91,1.91 0 0 0 0.78,-0.16 1.44,1.44 0 0 0 0.65,-0.54 z"
       id="path110"
       inkscape:connector-curvature="0" />
    <path
       style="fill:#1c3761"
       class="cls-3"
       d="m 232.74,265.74 h -6.94 a 2.55,2.55 0 0 0 0.85,1.89 3.46,3.46 0 0 0 2.29,0.66 4.8,4.8 0 0 0 1.86,-0.38 5.91,5.91 0 0 0 1.42,-0.83 h 0.34 v 2.71 a 10.44,10.44 0 0 1 -1.94,0.67 9.5,9.5 0 0 1 -2,0.2 6.14,6.14 0 0 1 -4.36,-1.42 5.35,5.35 0 0 1 -1.51,-4.06 5.84,5.84 0 0 1 1.43,-4.14 5.17,5.17 0 0 1 3.94,-1.52 4.37,4.37 0 0 1 3.46,1.3 5.39,5.39 0 0 1 1.17,3.74 z m -3,-2 a 2.5,2.5 0 0 0 -0.47,-1.6 1.72,1.72 0 0 0 -1.39,-0.53 2,2 0 0 0 -1.43,0.51 2.27,2.27 0 0 0 -0.64,1.62 z"
       id="path112"
       inkscape:connector-curvature="0" />
    <path
       style="fill:#1c3761"
       class="cls-3"
       d="m 247.7,270.38 h -7.33 v -2.47 h 2 v -9 h -2 v -2.48 h 7.33 v 2.48 h -2 v 9 h 2 z"
       id="path114"
       inkscape:connector-curvature="0" />
    <path
       style="fill:#1c3761"
       class="cls-3"
       d="m 259.66,270.38 h -3 v -5.22 c 0,-0.43 0,-0.85 -0.06,-1.27 a 2.83,2.83 0 0 0 -0.2,-0.94 1.1,1.1 0 0 0 -0.49,-0.51 2.23,2.23 0 0 0 -0.91,-0.15 2.47,2.47 0 0 0 -0.83,0.15 4.46,4.46 0 0 0 -0.92,0.47 v 7.47 h -3 v -10.53 h 3 V 261 a 7.29,7.29 0 0 1 1.55,-1.08 3.58,3.58 0 0 1 1.65,-0.37 3,3 0 0 1 2.39,1 4.44,4.44 0 0 1 0.86,3 z"
       id="path116"
       inkscape:connector-curvature="0" />
    <path
       style="fill:#1c3761"
       class="cls-3"
       d="m 272.1,265.12 a 5.82,5.82 0 0 1 -1.36,4.09 5.6,5.6 0 0 1 -7.63,0 6.84,6.84 0 0 1 0,-8.2 5.62,5.62 0 0 1 7.63,0 5.91,5.91 0 0 1 1.36,4.11 z m -3.72,2.56 a 3,3 0 0 0 0.44,-1 6.51,6.51 0 0 0 0.14,-1.57 6.86,6.86 0 0 0 -0.15,-1.56 2.81,2.81 0 0 0 -0.42,-1 1.48,1.48 0 0 0 -0.65,-0.55 2.17,2.17 0 0 0 -0.81,-0.16 2.36,2.36 0 0 0 -0.78,0.13 1.64,1.64 0 0 0 -0.65,0.53 2.74,2.74 0 0 0 -0.44,1 7.59,7.59 0 0 0 0,3.1 2.53,2.53 0 0 0 0.42,1 1.56,1.56 0 0 0 0.64,0.54 2.08,2.08 0 0 0 0.85,0.17 2.1,2.1 0 0 0 0.79,-0.16 1.51,1.51 0 0 0 0.62,-0.47 z"
       id="path118"
       inkscape:connector-curvature="0" />
    <path
       style="fill:#1c3761"
       class="cls-3"
       d="m 283.79,259.85 -3.64,10.53 h -3.44 l -3.61,-10.53 h 3.19 l 2.2,7.25 2.16,-7.25 z"
       id="path120"
       inkscape:connector-curvature="0" />
    <path
       style="fill:#1c3761"
       class="cls-3"
       d="m 291.19,269.27 -0.6,0.49 a 3.88,3.88 0 0 1 -0.68,0.46 4.51,4.51 0 0 1 -0.93,0.34 4.93,4.93 0 0 1 -1.05,0.1 3,3 0 0 1 -2.26,-0.93 3.28,3.28 0 0 1 -0.91,-2.37 3.42,3.42 0 0 1 0.47,-1.88 3.16,3.16 0 0 1 1.31,-1.16 6.91,6.91 0 0 1 2.09,-0.6 c 0.83,-0.12 1.69,-0.21 2.58,-0.26 v -0.06 a 1.22,1.22 0 0 0 -0.64,-1.2 4.2,4.2 0 0 0 -1.88,-0.34 4.79,4.79 0 0 0 -1.6,0.3 c -0.57,0.2 -1,0.35 -1.22,0.45 h -0.28 v -2.54 q 0.48,-0.13 1.56,-0.33 a 12.16,12.16 0 0 1 2.17,-0.19 6.19,6.19 0 0 1 3.73,0.88 3.32,3.32 0 0 1 1.15,2.79 v 7.16 h -3 z m 0,-1.64 v -2.19 l -1.33,0.15 a 5.9,5.9 0 0 0 -1.08,0.23 1.56,1.56 0 0 0 -0.7,0.46 1.27,1.27 0 0 0 -0.24,0.8 2.61,2.61 0 0 0 0.05,0.54 0.89,0.89 0 0 0 0.26,0.39 1.27,1.27 0 0 0 0.46,0.28 3.36,3.36 0 0 0 0.84,0.08 2.22,2.22 0 0 0 0.92,-0.2 2.92,2.92 0 0 0 0.82,-0.54 z"
       id="path122"
       inkscape:connector-curvature="0" />
    <path
       style="fill:#1c3761"
       class="cls-3"
       d="m 301.66,270.64 a 7.09,7.09 0 0 1 -2.17,-0.38 4.71,4.71 0 0 1 -1.7,-1 4.59,4.59 0 0 1 -1.1,-1.7 6.38,6.38 0 0 1 -0.4,-2.38 6.77,6.77 0 0 1 0.44,-2.55 4.61,4.61 0 0 1 3,-2.74 6.89,6.89 0 0 1 2.08,-0.31 6.24,6.24 0 0 1 1.78,0.23 8,8 0 0 1 1.53,0.61 v 2.88 h -0.43 l -0.43,-0.39 a 3.58,3.58 0 0 0 -0.61,-0.45 4,4 0 0 0 -0.75,-0.34 3.05,3.05 0 0 0 -1,-0.13 2.2,2.2 0 0 0 -1.86,0.85 3.82,3.82 0 0 0 -0.65,2.34 3.43,3.43 0 0 0 0.67,2.3 2.31,2.31 0 0 0 1.89,0.79 3.61,3.61 0 0 0 1,-0.14 3.19,3.19 0 0 0 0.76,-0.34 4.3,4.3 0 0 0 0.51,-0.4 l 0.4,-0.4 h 0.43 v 2.88 l -0.71,0.31 a 5.08,5.08 0 0 1 -0.86,0.28 c 0,0.1 0,0.22 0,0.36 0,0.14 0,0.28 0,0.39 a 3.13,3.13 0 0 1 -0.84,2.34 3,3 0 0 1 -2.18,0.82 c -0.2,0 -0.48,0 -0.86,-0.05 a 4.36,4.36 0 0 1 -0.94,-0.18 v -1.88 h 0.2 a 3.79,3.79 0 0 0 0.58,0.22 2.89,2.89 0 0 0 0.74,0.11 1.36,1.36 0 0 0 1,-0.38 1.58,1.58 0 0 0 0.35,-1.12 z"
       id="path124"
       inkscape:connector-curvature="0" />
    <path
       style="fill:#1c3761"
       class="cls-3"
       d="m 312.84,269.27 -0.6,0.49 a 3.93,3.93 0 0 1 -0.69,0.46 4.23,4.23 0 0 1 -0.92,0.34 4.93,4.93 0 0 1 -1.05,0.1 3,3 0 0 1 -2.26,-0.93 3.28,3.28 0 0 1 -0.91,-2.37 3.42,3.42 0 0 1 0.47,-1.88 3.1,3.1 0 0 1 1.31,-1.16 6.84,6.84 0 0 1 2.08,-0.6 c 0.84,-0.12 1.7,-0.21 2.59,-0.26 v -0.06 a 1.24,1.24 0 0 0 -0.64,-1.2 4.25,4.25 0 0 0 -1.89,-0.34 4.73,4.73 0 0 0 -1.59,0.3 c -0.57,0.2 -1,0.35 -1.22,0.45 h -0.28 v -2.54 q 0.48,-0.13 1.56,-0.33 a 12.13,12.13 0 0 1 2.16,-0.19 6.2,6.2 0 0 1 3.74,0.88 3.31,3.31 0 0 1 1.14,2.79 v 7.16 h -3 z m 2.23,-14.07 a 4.18,4.18 0 0 1 -0.69,2.35 2.08,2.08 0 0 1 -1.71,0.77 1.66,1.66 0 0 1 -0.75,-0.18 4.43,4.43 0 0 1 -0.65,-0.37 c -0.18,-0.12 -0.37,-0.24 -0.58,-0.36 a 1.11,1.11 0 0 0 -0.52,-0.18 0.56,0.56 0 0 0 -0.56,0.3 2.45,2.45 0 0 0 -0.16,0.84 h -1.84 a 3.87,3.87 0 0 1 0.7,-2.26 2.05,2.05 0 0 1 1.69,-0.84 1.79,1.79 0 0 1 0.76,0.16 5.28,5.28 0 0 1 0.67,0.36 l 0.58,0.36 a 0.94,0.94 0 0 0 0.49,0.16 0.57,0.57 0 0 0 0.56,-0.3 2,2 0 0 0 0.17,-0.81 z m -2.23,12.43 v -2.19 l -1.33,0.15 a 5.71,5.71 0 0 0 -1.08,0.23 1.51,1.51 0 0 0 -0.7,0.46 1.27,1.27 0 0 0 -0.24,0.8 2.61,2.61 0 0 0 0.05,0.54 0.89,0.89 0 0 0 0.26,0.39 1.19,1.19 0 0 0 0.46,0.28 3.36,3.36 0 0 0 0.84,0.08 2.22,2.22 0 0 0 0.92,-0.2 2.92,2.92 0 0 0 0.82,-0.54 z"
       id="path126"
       inkscape:connector-curvature="0" />
    <path
       style="fill:#1c3761"
       class="cls-3"
       d="m 328.29,265.12 a 5.82,5.82 0 0 1 -1.36,4.09 5.6,5.6 0 0 1 -7.63,0 6.84,6.84 0 0 1 0,-8.2 5.62,5.62 0 0 1 7.63,0 5.91,5.91 0 0 1 1.36,4.11 z m -3.73,2.56 a 2.79,2.79 0 0 0 0.44,-1 6.43,6.43 0 0 0 0.15,-1.57 6.86,6.86 0 0 0 -0.15,-1.56 2.81,2.81 0 0 0 -0.42,-1 1.54,1.54 0 0 0 -0.65,-0.55 2.18,2.18 0 0 0 -0.82,-0.16 2.26,2.26 0 0 0 -0.77,0.13 1.66,1.66 0 0 0 -0.66,0.53 2.91,2.91 0 0 0 -0.44,1 6.61,6.61 0 0 0 -0.16,1.61 7.19,7.19 0 0 0 0.14,1.49 2.85,2.85 0 0 0 0.42,1 1.63,1.63 0 0 0 0.64,0.54 2.14,2.14 0 0 0 1.65,0 1.43,1.43 0 0 0 0.63,-0.46 z"
       id="path128"
       inkscape:connector-curvature="0" />
  </g>
</svg>
