<svg width="64" height="64" viewBox="0 0 64 64" fill="none" xmlns="http://www.w3.org/2000/svg">
<path d="M61.3 48.7498L50.17 29.2898C50.0775 29.1092 49.9493 28.9493 49.7932 28.8196C49.637 28.69 49.4562 28.5934 49.2617 28.5356C49.0672 28.4779 48.863 28.4602 48.6614 28.4837C48.4598 28.5072 48.2651 28.5713 48.0891 28.6722C47.913 28.7731 47.7593 28.9087 47.6371 29.0707C47.515 29.2327 47.427 29.4179 47.3784 29.6149C47.3299 29.8119 47.3219 30.0168 47.3548 30.217C47.3877 30.4172 47.4609 30.6087 47.57 30.7798L47.65 30.9298L33.83 40.5698V40.4898C33.6556 40.1856 33.3795 39.9526 33.0502 39.8319C32.721 39.7112 32.3597 39.7104 32.03 39.8298C31.7869 39.748 31.5269 39.7298 31.2748 39.7771C31.0227 39.8243 30.7869 39.9355 30.59 40.0998L16.47 30.6898C16.6556 30.3397 16.6946 29.9302 16.5783 29.5514C16.4621 29.1726 16.2001 28.8555 15.85 28.6698C15.4999 28.4842 15.0904 28.4452 14.7116 28.5615C14.3327 28.6777 14.0156 28.9397 13.83 29.2898L2.69997 48.7498C2.55796 48.9852 2.48291 49.2549 2.48291 49.5298C2.48291 49.8047 2.55796 50.0744 2.69997 50.3098C2.84798 50.5412 3.05706 50.7272 3.30412 50.8472C3.55118 50.9672 3.82661 51.0165 4.09997 50.9898L15.1 49.9298L19.76 59.9298C19.8761 60.1792 20.0591 60.3916 20.2885 60.5434C20.518 60.6952 20.785 60.7805 21.06 60.7898H21.12C21.3844 60.789 21.6439 60.7182 21.8722 60.5848C22.1005 60.4513 22.2895 60.2599 22.42 60.0298L32 43.4198L41.52 60.0698C41.6504 60.2999 41.8394 60.4913 42.0677 60.6248C42.296 60.7583 42.5555 60.829 42.82 60.8298H42.88C43.1549 60.8205 43.4219 60.7352 43.6514 60.5834C43.8809 60.4316 44.0638 60.2192 44.18 59.9698L48.84 49.9698L59.84 51.0298C60.1135 51.0553 60.3889 51.0051 60.6359 50.8847C60.8829 50.7644 61.0921 50.5785 61.2407 50.3474C61.3892 50.1163 61.4715 49.8488 61.4784 49.5741C61.4853 49.2995 61.4167 49.0282 61.28 48.7898L61.3 48.7498Z" fill="#0099D6" id="id_107"></path>
<path d="M31.9999 3.16992C28.0875 3.16993 24.2629 4.32959 21.0094 6.50238C17.7558 8.67517 15.2192 11.7636 13.7202 15.3774C12.2212 18.9912 11.8269 22.9683 12.5873 26.8061C13.3477 30.6439 15.2285 34.1702 17.9922 36.9394C20.7559 39.7087 24.2784 41.5967 28.1146 42.3648C31.9509 43.1329 35.9287 42.7467 39.5456 41.255C43.1624 39.7632 46.2559 37.2329 48.4353 33.9837C50.6146 30.7346 51.782 26.9123 51.7899 22.9999C51.7926 17.7468 49.7097 12.7075 45.9989 8.9892C42.2882 5.27093 37.2531 3.17787 31.9999 3.16992V3.16992Z" fill="#F8B64C" id="id_108"></path>
<path d="M44 19.1798C43.8957 18.8848 43.7018 18.6298 43.4454 18.4505C43.1889 18.2712 42.8829 18.1765 42.57 18.1798H35.57L33.43 11.5798C33.3338 11.276 33.1433 11.0108 32.8862 10.8225C32.6291 10.6342 32.3187 10.5327 32 10.5327C31.6813 10.5327 31.3709 10.6342 31.1138 10.8225C30.8567 11.0108 30.6662 11.276 30.57 11.5798L28.43 18.1798H21.48C21.1616 18.1783 20.8511 18.278 20.5932 18.4647C20.3353 18.6513 20.1435 18.9152 20.0455 19.2181C19.9475 19.521 19.9484 19.8472 20.0481 20.1495C20.1478 20.4518 20.3411 20.7146 20.6 20.8998L26.22 24.9798L24.07 31.5898C23.9707 31.8915 23.9697 32.217 24.0672 32.5193C24.1647 32.8216 24.3556 33.0852 24.6125 33.272C24.8694 33.4588 25.179 33.5593 25.4966 33.5589C25.8142 33.5585 26.1236 33.4573 26.38 33.2698L32 29.1398L37.62 33.2298C37.8764 33.4173 38.1857 33.5185 38.5034 33.5189C38.821 33.5193 39.1306 33.4188 39.3875 33.232C39.6444 33.0452 39.8353 32.7816 39.9328 32.4793C40.0303 32.177 40.0293 31.8515 39.93 31.5498L37.78 24.9398L43.4 20.8598C43.6667 20.6809 43.8689 20.4211 43.9769 20.1187C44.0849 19.8163 44.093 19.4872 44 19.1798V19.1798Z" fill="#FFD164" id="id_109"></path>
</svg>