<?xml version="1.0" standalone="no"?>
<!DOCTYPE svg PUBLIC "-//W3C//DTD SVG 20010904//EN"
 "http://www.w3.org/TR/2001/REC-SVG-20010904/DTD/svg10.dtd">
<svg version="1.0" xmlns="http://www.w3.org/2000/svg"
 width="2000.000000pt" height="765.000000pt" viewBox="0 0 2000.000000 765.000000"
 preserveAspectRatio="xMidYMid meet">

<g transform="translate(0.000000,765.000000) scale(0.100000,-0.100000)"
fill="#000000" stroke="none">
<path d="M4165 6303 c-488 -42 -975 -236 -1342 -534 -169 -138 -390 -369 -518
-543 -62 -85 -187 -287 -181 -293 2 -3 50 19 105 47 703 352 1580 623 2271
701 119 13 497 15 550 2 34 -9 31 -10 -65 -37 -722 -204 -1531 -572 -2135
-971 -531 -350 -956 -753 -1175 -1113 -45 -73 -41 -82 38 -82 26 0 50 -1 55
-1 4 -1 23 25 42 57 l34 59 13 -105 c13 -104 34 -220 53 -292 l10 -36 108 76
c614 440 1625 829 2410 928 138 17 457 21 507 6 29 -8 29 -9 -25 -21 -102 -24
-524 -168 -685 -234 -831 -339 -1511 -798 -1879 -1270 -65 -84 -166 -241 -166
-259 0 -17 47 -7 56 12 8 17 18 7 81 -78 40 -53 103 -131 141 -172 l68 -74 69
73 c344 364 1226 742 1855 793 79 7 164 8 205 3 l70 -8 -40 -12 c-358 -113
-510 -172 -755 -296 -385 -194 -690 -421 -875 -653 -57 -70 -135 -199 -135
-222 0 -12 215 -134 330 -187 757 -352 1674 -283 2366 179 155 103 249 180
402 328 420 409 665 882 754 1456 20 131 17 557 -5 695 -64 404 -223 783 -463
1105 -92 123 -295 335 -409 427 -448 361 -1003 557 -1565 551 -74 -1 -153 -3
-175 -5z"/>
<path d="M7680 3840 l0 -1080 155 0 155 0 0 1080 0 1080 -155 0 -155 0 0
-1080z"/>
<path d="M8082 3753 c3 -483 6 -555 21 -606 57 -195 175 -311 369 -365 93 -25
663 -25 756 0 187 52 300 157 360 336 l27 77 3 553 3 552 -155 0 -156 0 0
-498 c0 -575 0 -575 -79 -653 -71 -71 -108 -79 -381 -79 -273 0 -310 8 -381
79 -79 78 -79 78 -79 653 l0 498 -155 0 -156 0 3 -547z"/>
<path d="M10105 4284 c-214 -47 -356 -188 -400 -399 -21 -99 -21 -611 0 -709
41 -193 156 -322 343 -384 74 -25 87 -26 370 -30 242 -3 306 -1 375 13 268 53
411 225 434 523 l6 82 -155 0 -155 0 -6 -60 c-13 -119 -79 -206 -181 -235 -46
-13 -98 -16 -298 -13 l-243 3 -58 28 c-63 31 -97 70 -124 138 -25 65 -25 513
0 578 26 66 62 108 120 139 l52 27 248 3 c286 4 330 -3 399 -66 50 -45 76
-101 84 -181 l7 -61 153 0 154 0 0 44 c0 81 -30 217 -64 290 -60 129 -144 201
-293 253 -78 27 -79 27 -388 30 -248 2 -324 -1 -380 -13z"/>
<path d="M11715 4284 c-157 -31 -293 -130 -354 -257 -63 -132 -64 -139 -68
-729 l-4 -538 155 0 155 0 3 513 3 512 24 53 c13 30 42 68 64 88 65 55 113 64
334 64 l193 0 0 155 0 155 -217 -1 c-142 -1 -243 -6 -288 -15z"/>
<path d="M12312 3763 c4 -516 5 -541 26 -616 41 -148 119 -251 237 -314 120
-63 156 -68 505 -68 348 0 375 3 497 61 128 61 210 167 255 331 21 74 22 102
26 611 l4 532 -156 0 -156 0 0 -472 c0 -301 -4 -494 -11 -535 -15 -87 -58
-149 -129 -188 l-55 -30 -248 -3 c-281 -4 -324 3 -393 62 -23 20 -52 58 -65
88 l-24 53 -3 513 -3 512 -155 0 -155 0 3 -537z"/>
<path d="M14365 4289 c-174 -29 -304 -119 -374 -256 -65 -130 -64 -124 -68
-725 l-4 -548 155 0 156 0 0 498 c0 565 1 571 72 648 55 59 123 84 232 84 110
0 179 -22 232 -75 78 -79 78 -74 82 -647 l3 -508 149 0 149 0 3 503 c4 547 5
557 63 633 14 19 50 46 78 61 44 23 68 28 152 31 127 5 193 -16 253 -82 71
-77 72 -83 72 -648 l0 -498 155 0 156 0 -3 548 c-3 482 -6 554 -21 605 -55
187 -160 297 -335 354 -105 35 -319 44 -442 19 -98 -20 -192 -60 -242 -104
l-35 -32 -39 31 c-55 45 -147 85 -237 103 -82 17 -275 20 -362 5z"/>
<path d="M16576 4284 c-158 -31 -290 -125 -353 -252 -59 -118 -68 -183 -68
-502 0 -240 3 -297 18 -362 47 -199 167 -326 362 -384 53 -16 120 -18 613 -21
l552 -4 0 473 c0 260 -5 513 -10 562 -32 280 -169 439 -422 490 -102 21 -588
21 -692 0z m630 -309 c59 -18 118 -64 143 -114 34 -66 41 -145 41 -473 l0
-318 -348 0 c-389 0 -418 4 -489 64 -22 20 -51 58 -64 88 -23 51 -24 60 -24
308 0 245 1 257 23 306 31 68 78 112 144 135 45 16 87 18 289 19 179 0 247 -4
285 -15z"/>
<path d="M18050 3915 l291 -385 -291 -385 -291 -385 195 0 196 0 191 255 c106
141 195 252 199 248 4 -4 91 -119 194 -255 l187 -248 195 0 195 0 -291 385
-291 385 291 385 290 385 -198 -2 -197 -3 -188 -250 c-104 -137 -191 -249
-193 -248 -3 1 -91 115 -195 252 l-190 251 -195 0 -194 0 290 -385z"/>
<path d="M1839 3103 c-13 -16 -12 -17 4 -4 9 7 17 15 17 17 0 8 -8 3 -21 -13z"/>
<path d="M16060 2180 l0 -289 38 -10 c20 -6 64 -11 98 -11 121 0 191 68 201
193 13 165 -72 248 -239 233 l-68 -6 0 90 c0 73 -3 90 -15 90 -13 0 -15 -39
-15 -290z m201 80 c74 -21 117 -105 104 -206 -12 -101 -73 -154 -175 -154
-107 0 -100 -13 -100 185 0 172 0 174 23 178 42 8 112 7 148 -3z"/>
<path d="M16840 2196 c0 -263 1 -274 21 -300 18 -23 27 -27 67 -24 60 4 68 26
10 30 -66 5 -68 12 -68 311 0 222 -2 257 -15 257 -13 0 -15 -37 -15 -274z"/>
<path d="M17640 2380 l0 -90 -67 6 c-84 8 -142 -7 -188 -47 -44 -39 -58 -87
-54 -181 5 -93 37 -149 102 -179 47 -21 140 -25 200 -8 l37 10 0 289 c0 251
-2 290 -15 290 -12 0 -15 -17 -15 -90z m-31 -116 l31 -6 0 -173 c0 -197 7
-185 -98 -185 -116 0 -182 67 -182 184 0 93 38 156 104 175 38 11 103 13 145
5z"/>
<path d="M18670 2380 l0 -90 -67 6 c-168 15 -253 -68 -240 -233 10 -125 80
-193 201 -193 34 0 78 5 99 11 l37 10 0 289 c0 251 -2 290 -15 290 -12 0 -15
-17 -15 -90z m-31 -116 l31 -6 0 -173 c0 -198 7 -185 -100 -185 -100 0 -162
52 -175 150 -14 100 28 188 101 210 36 10 101 12 143 4z"/>
<path d="M16600 2410 c0 -29 4 -40 15 -40 8 0 15 8 15 18 0 9 3 27 6 40 5 18
2 22 -15 22 -18 0 -21 -6 -21 -40z"/>
<path d="M17120 2410 c0 -29 4 -40 15 -40 8 0 15 8 15 18 0 9 3 27 6 40 5 18
2 22 -15 22 -18 0 -21 -6 -21 -40z"/>
<path d="M15210 2350 l0 -60 -46 0 c-58 0 -56 -24 4 -28 l41 -3 3 -170 3 -171
29 -24 c23 -21 37 -24 79 -22 69 4 77 28 9 28 -81 0 -86 12 -90 201 l-3 159
65 0 c51 0 66 3 66 15 0 10 -16 15 -62 17 l-63 3 -3 58 c-2 42 -7 57 -17 57
-12 0 -15 -14 -15 -60z"/>
<path d="M13763 2289 c-43 -12 -90 -62 -103 -107 -5 -20 -10 -69 -10 -108 0
-134 67 -204 194 -204 73 0 106 8 106 25 0 8 -21 11 -77 8 -99 -5 -138 12
-171 77 -20 38 -23 56 -19 115 5 93 26 131 85 157 38 17 58 19 114 14 54 -5
68 -3 68 8 0 24 -121 34 -187 15z"/>
<path d="M14225 2290 c-77 -24 -110 -86 -110 -205 0 -150 44 -207 165 -213 81
-4 133 23 164 83 32 60 30 204 -2 261 -13 22 -37 49 -53 58 -35 21 -122 29
-164 16z m135 -38 c54 -27 74 -71 74 -166 0 -58 -5 -90 -17 -114 -52 -96 -202
-96 -254 0 -25 48 -24 182 3 229 23 40 75 69 124 69 19 0 51 -8 70 -18z"/>
<path d="M14684 2291 c-55 -14 -54 -9 -54 -217 0 -187 1 -194 20 -194 19 0 20
7 20 189 l0 190 55 6 c60 8 125 1 157 -16 37 -20 48 -69 48 -224 0 -122 2
-145 15 -145 13 0 15 24 15 155 0 178 -9 214 -62 241 -37 19 -163 28 -214 15z"/>
<path d="M15603 2293 c-20 -2 -33 -10 -33 -19 0 -11 14 -13 73 -8 86 7 151 -7
171 -39 8 -12 18 -46 22 -75 l7 -53 -54 8 c-143 21 -224 -2 -247 -71 -25 -78
15 -147 95 -162 46 -9 213 2 225 14 6 6 8 77 6 168 -3 174 -10 198 -66 224
-28 13 -144 21 -199 13z m220 -219 c14 -5 17 -17 17 -80 0 -71 -1 -75 -26 -84
-34 -13 -154 -13 -193 1 -38 13 -51 35 -51 87 0 45 22 70 72 83 32 8 144 3
181 -7z"/>
<path d="M17933 2293 c-20 -2 -33 -10 -33 -19 0 -11 14 -13 73 -8 86 7 151 -7
171 -39 8 -12 18 -46 22 -75 l7 -53 -54 8 c-143 21 -224 -2 -247 -71 -25 -78
15 -147 95 -162 46 -9 213 2 225 14 6 6 8 77 6 168 -3 174 -10 198 -66 224
-28 13 -144 21 -199 13z m220 -219 c14 -5 17 -17 17 -80 0 -71 -1 -75 -26 -84
-34 -13 -154 -13 -193 1 -38 13 -51 35 -51 87 0 45 22 70 72 83 32 8 144 3
181 -7z"/>
<path d="M18990 2278 c-65 -34 -90 -87 -90 -192 0 -149 61 -216 196 -216 78 0
124 9 124 24 0 9 -25 11 -87 8 -71 -2 -95 0 -122 15 -44 23 -70 58 -78 106
l-6 37 134 0 c166 0 179 6 179 83 0 67 -27 112 -83 137 -56 26 -113 25 -167
-2z m168 -29 c45 -28 69 -118 40 -147 -8 -8 -54 -12 -141 -12 l-130 0 6 46 c9
86 74 139 159 130 25 -3 55 -10 66 -17z"/>
<path d="M16600 2085 c0 -176 2 -205 15 -205 13 0 15 29 15 205 0 176 -2 205
-15 205 -13 0 -15 -29 -15 -205z"/>
<path d="M17120 2085 c0 -176 2 -205 15 -205 13 0 15 29 15 205 0 176 -2 205
-15 205 -13 0 -15 -29 -15 -205z"/>
</g>
</svg>
