<svg id="visual" viewBox="0 0 900 600" width="900" height="600" xmlns="http://www.w3.org/2000/svg" xmlns:xlink="http://www.w3.org/1999/xlink" version="1.1"><path d="M0 49L82 37L164 25L245 19L327 19L409 31L491 19L573 25L655 37L736 31L818 31L900 31L900 0L818 0L736 0L655 0L573 0L491 0L409 0L327 0L245 0L164 0L82 0L0 0Z" fill="#253759"></path><path d="M0 157L82 199L164 97L245 205L327 121L409 205L491 145L573 169L655 145L736 139L818 133L900 187L900 29L818 29L736 29L655 35L573 23L491 17L409 29L327 17L245 17L164 23L82 35L0 47Z" fill="#24395f"></path><path d="M0 235L82 277L164 139L245 253L327 187L409 241L491 217L573 241L655 223L736 199L818 187L900 277L900 185L818 131L736 137L655 143L573 167L491 143L409 203L327 119L245 203L164 95L82 197L0 155Z" fill="#233b65"></path><path d="M0 259L82 325L164 169L245 277L327 235L409 265L491 253L573 283L655 241L736 229L818 235L900 319L900 275L818 185L736 197L655 221L573 239L491 215L409 239L327 185L245 251L164 137L82 275L0 233Z" fill="#223e6c"></path><path d="M0 313L82 391L164 193L245 343L327 277L409 295L491 337L573 343L655 313L736 295L818 313L900 391L900 317L818 233L736 227L655 239L573 281L491 251L409 263L327 233L245 275L164 167L82 323L0 257Z" fill="#214072"></path><path d="M0 355L82 457L164 259L245 379L327 331L409 349L491 361L573 367L655 373L736 355L818 337L900 415L900 389L818 311L736 293L655 311L573 341L491 335L409 293L327 275L245 341L164 191L82 389L0 311Z" fill="#1f4278"></path><path d="M0 445L82 511L164 385L245 457L327 445L409 415L491 445L573 433L655 427L736 415L818 433L900 457L900 413L818 335L736 353L655 371L573 365L491 359L409 347L327 329L245 377L164 257L82 455L0 353Z" fill="#1d457f"></path><path d="M0 583L82 565L164 571L245 541L327 571L409 565L491 577L573 541L655 583L736 565L818 571L900 559L900 455L818 431L736 413L655 425L573 431L491 443L409 413L327 443L245 455L164 383L82 509L0 443Z" fill="#1b4785"></path><path d="M0 601L82 601L164 601L245 601L327 601L409 601L491 601L573 601L655 601L736 601L818 601L900 601L900 557L818 569L736 563L655 581L573 539L491 575L409 563L327 569L245 539L164 569L82 563L0 581Z" fill="#184a8c"></path></svg>